/* XPM */
static char * unknown_xpm[] = {
"16 16 70 1",
" 	c None",
".	c #BFBCB9",
"+	c #9E9C9B",
"@	c #7D756E",
"#	c #CAC4C0",
"$	c #3E3832",
"%	c #837C76",
"&	c #554D46",
"*	c #403C38",
"=	c #766B62",
"-	c #1E1B18",
";	c #B9B7B4",
">	c #040303",
",	c #2C2A28",
"'	c #161413",
")	c #807771",
"!	c #0E0C0B",
"~	c #B5B3B2",
"{	c #DAD7D4",
"]	c #B7AFA8",
"^	c #5C524B",
"/	c #4B4845",
"(	c #C0BFBE",
"_	c #C5BDB6",
":	c #9F9187",
"<	c #8A7D73",
"[	c #282420",
"}	c #76726E",
"|	c #5F5751",
"1	c #43403E",
"2	c #D5D1CD",
"3	c #9D9186",
"4	c #988A7F",
"5	c #5C534B",
"6	c #060504",
"7	c #020101",
"8	c #403D3A",
"9	c #968A80",
"0	c #352F2A",
"a	c #010101",
"b	c #BDB4AD",
"c	c #86796F",
"d	c #0B0A09",
"e	c #D7D2CE",
"f	c #B6ACA5",
"g	c #2A2521",
"h	c #A69C94",
"i	c #8D7F74",
"j	c #292420",
"k	c #9A9089",
"l	c #7F7369",
"m	c #070605",
"n	c #564D47",
"o	c #998B80",
"p	c #908175",
"q	c #A59A92",
"r	c #CECAC6",
"s	c #D2CCC7",
"t	c #534B45",
"u	c #000000",
"v	c #63584F",
"w	c #908276",
"x	c #9F9186",
"y	c #A3968C",
"z	c #877B71",
"A	c #0F0D0C",
"B	c #2B2622",
"C	c #473F38",
"D	c #4B433C",
"E	c #171412",
"                ",
"       .        ",
"    +@ #$       ",
"    %&*=-       ",
"   ; > ,'       ",
"   )! ~{]^      ",
"   / (_:<[      ",
"  }|123456      ",
"   78_90a       ",
"     bcd  efg   ",
"     hij  klm   ",
"     nopqrstu   ",
"      vwxyzA    ",
"       BCDEu    ",
"         u      ",
"                "};
