/* XPM */
static char * down_xpm[] = {
"24 24 73 1",
" 	c None",
".	c #6E9DB3",
"+	c #6B99AE",
"@	c #6793A7",
"#	c #6692A7",
"$	c #6692A6",
"%	c #60899C",
"&	c #466573",
"*	c #527586",
"=	c #5C8496",
"-	c #648EA2",
";	c #648FA3",
">	c #638EA2",
",	c #618A9D",
"'	c #577D8E",
")	c #3C5562",
"!	c #1C292E",
"~	c #4A6978",
"{	c #557A8B",
"]	c #5D8497",
"^	c #5E8698",
"/	c #5D8598",
"(	c #5A8093",
"_	c #507282",
":	c #3A525E",
"<	c #1A252B",
"[	c #456270",
"}	c #496876",
"|	c #507383",
"1	c #547888",
"2	c #567A8B",
"3	c #567B8D",
"4	c #527686",
"5	c #496877",
"6	c #374F5A",
"7	c #1F2C32",
"8	c #0E1417",
"9	c #486776",
"0	c #4F7181",
"a	c #517484",
"b	c #4A6A79",
"c	c #3F5A67",
"d	c #2D414A",
"e	c #162024",
"f	c #537687",
"g	c #4E6F7E",
"h	c #486775",
"i	c #3E5965",
"j	c #2F444D",
"k	c #1B272D",
"l	c #4B6C7B",
"m	c #4E7080",
"n	c #425E6B",
"o	c #334954",
"p	c #1F2D33",
"q	c #11191C",
"r	c #466472",
"s	c #4D6E7D",
"t	c #476674",
"u	c #2B3D46",
"v	c #141D21",
"w	c #415D6A",
"x	c #334852",
"y	c #1E2A31",
"z	c #425F6C",
"A	c #4C6C7C",
"B	c #314650",
"C	c #415C69",
"D	c #3A535F",
"E	c #202E35",
"F	c #0D1215",
"G	c #1E2B31",
"H	c #0A0F11",
"                        ",
"                        ",
"                        ",
"                        ",
"    .+@##########$%&    ",
"    *=-;>>>>>>>>,')!    ",
"     ~{]^^^^^^/(_:<     ",
"     [}|12333245678     ",
"      90aaaaa_bcde      ",
"      132f|00ghijk      ",
"      bl_|00mbnopq      ",
"       rs__0gt)uv       ",
"       [9g0mbwxy8       ",
"        rs_mh)uv        ",
"        [9gszxy8        ",
"         rsAiuv         ",
"         [9}6y8         ",
"          rhBv          ",
"          CDEF          ",
"           GH           ",
"                        ",
"                        ",
"                        ",
"                        "};
