/* XPM */
static char * folder_xpm[] = {
"20 20 170 2",
"  	c None",
". 	c #DBBA9B",
"+ 	c #C1A891",
"@ 	c #624F3D",
"# 	c #584535",
"$ 	c #26211C",
"% 	c #DFC1A6",
"& 	c #FFFFFF",
"* 	c #F5EADF",
"= 	c #E1C1A5",
"- 	c #C68F61",
"; 	c #956540",
"> 	c #5C4330",
", 	c #161616",
"' 	c #333333",
") 	c #342B24",
"! 	c #292420",
"~ 	c #FEFEFD",
"{ 	c #FAF5F0",
"] 	c #E4C4A8",
"^ 	c #C38D61",
"/ 	c #B48055",
"( 	c #563F2E",
"_ 	c #443427",
": 	c #434343",
"< 	c #484848",
"[ 	c #4A4A4A",
"} 	c #725842",
"| 	c #B38B66",
"1 	c #796553",
"2 	c #675B52",
"3 	c #AA9888",
"4 	c #E9E4E0",
"5 	c #FEFDFD",
"6 	c #F6EBE1",
"7 	c #F2E3D6",
"8 	c #D5A881",
"9 	c #C69973",
"0 	c #936947",
"a 	c #3D332C",
"b 	c #3B342E",
"c 	c #383838",
"d 	c #8A6344",
"e 	c #D3A073",
"f 	c #D7A578",
"g 	c #BE956F",
"h 	c #7B644F",
"i 	c #6E4F37",
"j 	c #A89B91",
"k 	c #F9F1EB",
"l 	c #FEFEFE",
"m 	c #FAF3EE",
"n 	c #EAD2BC",
"o 	c #C79163",
"p 	c #95643C",
"q 	c #70523A",
"r 	c #303030",
"s 	c #926947",
"t 	c #C69163",
"u 	c #D6A578",
"v 	c #D5A578",
"w 	c #D0A075",
"x 	c #73604E",
"y 	c #524A41",
"z 	c #A89A8E",
"A 	c #EFE5DC",
"B 	c #EBD3BD",
"C 	c #513F30",
"D 	c #563C28",
"E 	c #141414",
"F 	c #B37A4C",
"G 	c #D7A679",
"H 	c #B9916D",
"I 	c #766150",
"J 	c #685C52",
"K 	c #AA9889",
"L 	c #EEEBE9",
"M 	c #ECD6C2",
"N 	c #4B3C2F",
"O 	c #533B28",
"P 	c #2B2A2A",
"Q 	c #967151",
"R 	c #C09770",
"S 	c #856E59",
"T 	c #53483D",
"U 	c #A39990",
"V 	c #F8EFE7",
"W 	c #463E37",
"X 	c #413125",
"Y 	c #825938",
"Z 	c #D2A072",
"` 	c #C79B72",
" .	c #695340",
"..	c #8C735C",
"+.	c #E6C7AB",
"@.	c #3D362F",
"#.	c #252525",
"$.	c #6E5541",
"%.	c #BA7F50",
"&.	c #D6A577",
"*.	c #D5A376",
"=.	c #D4A174",
"-.	c #C1895A",
";.	c #BF8657",
">.	c #B37848",
",.	c #654E3C",
"'.	c #D1A277",
").	c #463F39",
"!.	c #4B4848",
"~.	c #8E5F3B",
"{.	c #C68F60",
"].	c #C79061",
"^.	c #BD8354",
"/.	c #B67949",
"(.	c #B57848",
"_.	c #594332",
":.	c #787565",
"<.	c #272A29",
"[.	c #8D6646",
"}.	c #C08758",
"|.	c #B77A4A",
"1.	c #AF7344",
"2.	c #534130",
"3.	c #495B55",
"4.	c #282828",
"5.	c #473527",
"6.	c #B17647",
"7.	c #B47848",
"8.	c #B37747",
"9.	c #AD7243",
"0.	c #AA6F41",
"a.	c #A76D3F",
"b.	c #965F35",
"c.	c #845937",
"d.	c #373737",
"e.	c #4C4B4B",
"f.	c #674830",
"g.	c #734F33",
"h.	c #A2693C",
"i.	c #9C6439",
"j.	c #9B6338",
"k.	c #8E5930",
"l.	c #8D582F",
"m.	c #87552F",
"n.	c #1F1F1F",
"o.	c #181818",
"p.	c #382B21",
"q.	c #433428",
"r.	c #744D30",
"s.	c #86552E",
"t.	c #6B4C35",
"u.	c #2A2A2A",
"v.	c #5C4534",
"w.	c #3F3024",
"x.	c #6A462A",
"y.	c #8B572F",
"z.	c #181919",
"A.	c #3A2C22",
"B.	c #3D3128",
"C.	c #67472E",
"D.	c #6D482B",
"E.	c #392D23",
"F.	c #42514B",
"G.	c #3B2E24",
"H.	c #6E482B",
"I.	c #764C2C",
"J.	c #3A2F26",
"K.	c #543E2C",
"L.	c #3C2E24",
"M.	c #342920",
"                                        ",
"      . +   @ # $                       ",
"      % & * = - ; > ,       '           ",
") !   % & & ~ { ] ^ / ( _   : < [       ",
"} | 1 2 3 4 5 & & 6 7 8 9 0 a b c [     ",
"d e f g h i j k & & l l m n o p q r     ",
"s t u u v w x y z A l l l l B C D E     ",
"  F f u G G G H I J K L 5 l M N O P     ",
"  Q f u G G G G G R S T U V M W X       ",
"  Y Z u G G G G G G v `  ...+.@.#.      ",
"  $.%.&.G *.=.o =.-.;.;.>.,.'.).!.      ",
"    ~.{.].^././././.(.(.(._.:.<.        ",
"    [.(./.}.|./././.(.(.1.2.3.4.        ",
"    5.6.(.7.(.(.8.9.0.a.b.c.d.e.        ",
"      f.g.h.i.j.k.j.l.l.l.m.n.o.        ",
"        p.q.r.s.k.k.l.l.l.t.n.u.        ",
"            v.w.x.y.i.l.l.m.n.z.        ",
"                A.B.C.l.l.D.E.F.        ",
"                    G._ H.I.J.          ",
"                        K.L.M.          "};
