/* XPM */
static char * top_xpm[] = {
"20 20 224 2",
"  	c None",
". 	c #C7C9C9",
"+ 	c #BEC1C1",
"@ 	c #BABDBD",
"# 	c #B8BBBB",
"$ 	c #B8BCBB",
"% 	c #BCBFBF",
"& 	c #BCC0BF",
"* 	c #BDC0C0",
"= 	c #BFC2C2",
"- 	c #BEC0C0",
"; 	c #B7BABA",
"> 	c #B3B7B6",
", 	c #B5B9B8",
"' 	c #BCBEBE",
") 	c #C1C3C3",
"! 	c #BFC2C1",
"~ 	c #B4B7B7",
"{ 	c #808584",
"] 	c #BCBFBE",
"^ 	c #959B99",
"/ 	c #939897",
"( 	c #909594",
"_ 	c #8E9492",
": 	c #939796",
"< 	c #949998",
"[ 	c #959A99",
"} 	c #979C9B",
"| 	c #929796",
"1 	c #8E9392",
"2 	c #898F8E",
"3 	c #808785",
"4 	c #828987",
"5 	c #8C9190",
"6 	c #969B9A",
"7 	c #868C8B",
"8 	c #8D9392",
"9 	c #4C5050",
"0 	c #BABEBD",
"a 	c #929896",
"b 	c #8F9493",
"c 	c #919695",
"d 	c #8B918F",
"e 	c #898F8D",
"f 	c #8A908E",
"g 	c #848B89",
"h 	c #494D4C",
"i 	c #B8BDBC",
"j 	c #989D9C",
"k 	c #8B9190",
"l 	c #8D9391",
"m 	c #8F9593",
"n 	c #878E8C",
"o 	c #8B908F",
"p 	c #7C807F",
"q 	c #50514C",
"r 	c #80837B",
"s 	c #7F8684",
"t 	c #999E9D",
"u 	c #8E9493",
"v 	c #9A9F9E",
"w 	c #979D9C",
"x 	c #454948",
"y 	c #B9BDBC",
"z 	c #5D605D",
"A 	c #A19D83",
"B 	c #B9B79A",
"C 	c #5A5C56",
"D 	c #848270",
"E 	c #A0A39F",
"F 	c #888E8D",
"G 	c #9CA1A0",
"H 	c #424645",
"I 	c #BABDBC",
"J 	c #868D8B",
"K 	c #878A87",
"L 	c #B0AC94",
"M 	c #CCCBBE",
"N 	c #7B7C70",
"O 	c #CAC7B7",
"P 	c #9DA29F",
"Q 	c #9B9F9F",
"R 	c #818886",
"S 	c #424746",
"T 	c #858C8A",
"U 	c #6F7270",
"V 	c #61615C",
"W 	c #7C7E78",
"X 	c #8B908B",
"Y 	c #7E7F7A",
"Z 	c #79786B",
"` 	c #9A9F9C",
" .	c #838A88",
"..	c #848A89",
"+.	c #4A4E4D",
"@.	c #B4B8B7",
"#.	c #838886",
"$.	c #514B43",
"%.	c #A0927C",
"&.	c #A79A82",
"*.	c #9B9484",
"=.	c #86867E",
"-.	c #BBB8AC",
";.	c #A1A6A4",
">.	c #8A908F",
",.	c #474B4A",
"'.	c #B7BBBA",
").	c #888D8C",
"!.	c #868C8A",
"~.	c #828786",
"{.	c #776C5F",
"].	c #A8947F",
"^.	c #AA9780",
"/.	c #B19F88",
"(.	c #9C978C",
"_.	c #585955",
":.	c #8E8F8A",
"<.	c #838987",
"[.	c #8A8F8E",
"}.	c #454848",
"|.	c #8D9291",
"1.	c #85857F",
"2.	c #958476",
"3.	c #A88F7D",
"4.	c #AD9582",
"5.	c #9E9185",
"6.	c #8E8A83",
"7.	c #B6B4B1",
"8.	c #BEC1C0",
"9.	c #919795",
"0.	c #524F4C",
"a.	c #A6887A",
"b.	c #A08476",
"c.	c #A1938C",
"d.	c #9BA09F",
"e.	c #454A49",
"f.	c #BDC1C0",
"g.	c #7E8281",
"h.	c #545452",
"i.	c #595857",
"j.	c #453A37",
"k.	c #9B7A70",
"l.	c #98786D",
"m.	c #A8A2A0",
"n.	c #8C9391",
"o.	c #949A99",
"p.	c #929897",
"q.	c #8B9090",
"r.	c #464A49",
"s.	c #989C9B",
"t.	c #484544",
"u.	c #6A4C48",
"v.	c #825F5A",
"w.	c #8F6A64",
"x.	c #926C65",
"y.	c #97756D",
"z.	c #B1AEAD",
"A.	c #A3A9A8",
"B.	c #A0A4A3",
"C.	c #4C504E",
"D.	c #585B5A",
"E.	c #898D8C",
"F.	c #4A4E4E",
"G.	c #5B504F",
"H.	c #805654",
"I.	c #8B605D",
"J.	c #8D6260",
"K.	c #906865",
"L.	c #C3B7B6",
"M.	c #AEB1B0",
"N.	c #A8ADAC",
"O.	c #191A19",
"P.	c #B9B9B9",
"Q.	c #727272",
"R.	c #383838",
"S.	c #707574",
"T.	c #414444",
"U.	c #7F7F7E",
"V.	c #82605F",
"W.	c #8A6161",
"X.	c #967575",
"Y.	c #CCC4C4",
"Z.	c #B0B3B2",
"`.	c #888E8C",
" +	c #2D2E2D",
".+	c #D2D2D2",
"++	c #A1A1A1",
"@+	c #101211",
"#+	c #616665",
"$+	c #898C8A",
"%+	c #939292",
"&+	c #A9A9A9",
"*+	c #878D8B",
"=+	c #202020",
"-+	c #7D7D7D",
";+	c #454545",
">+	c #1B1C1C",
",+	c #6B6F6E",
"'+	c #BDC0BF",
")+	c #8C9291",
"!+	c #888F8D",
"~+	c #898E8D",
"{+	c #7A7D7D",
"]+	c #2E312F",
"^+	c #343635",
"/+	c #555857",
"(+	c #868B8A",
"_+	c #474C4B",
":+	c #9DA1A1",
"<+	c #878D8C",
"[+	c #838887",
"}+	c #858A89",
"|+	c #878B8B",
"1+	c #4B4F4E",
"2+	c #4E5251",
"3+	c #434746",
"4+	c #434847",
"5+	c #484C4B",
"6+	c #4A4F4E",
"7+	c #4C5150",
"8+	c #4C504F",
"9+	c #4B4F4F",
"0+	c #484D4C",
"a+	c #3F4342",
". + @ # $ @ % & * * = - ; > , ' ) ! ~ { ",
"] ^ / ( _ : < [ } | 1 2 3 4 5 6 ( 7 8 9 ",
"0 a b | 1 c ( _ d 1 b e 4 f / [ g ( 8 h ",
"i j k c 1 < | f l / m 2 n 1 j 2 o ( / h ",
"$ 6 f | c / c 1 p q r 3 s ( t g u v w x ",
"y / c ( b 1 ( 1 z A B C D E k F / G F H ",
"I / [ J 1 | t ( K L M N O P d } Q < R S ",
"$ j } T 1 6 } 1 U V W X Y Z ` / n  ...+.",
"@.G | R u j j #.$.%.&.*.=.-.;.R 4 >.>.,.",
"'.v ).!.| t j ~.{.].^./.(._.:.<.1 1 [.}.",
"* / 5 |./ j 6  .1.2.3.4.5.6.7.[.( b [.x ",
"8.b b b < } 9.R g 0.a.b.c.d./ |.b b o e.",
"f.1 / ( | } g.h.i.j.k.l.m.9.n.o.p.b q.r.",
"8.|.| |.c s.t.u.v.w.x.y.z.A.B.C.D.E.u F.",
"! 1 c |.c 6 G.H.I.J.K.L.M.N.O.P.Q.R.S.T.",
"! ( b | < < U.V.W.X.Y.Z.( `. +.+++@+#+x ",
"8.1 |.| 6 ( J $+%+&+Q < *+b =+-+;+>+,+,.",
"'+b )+[ v b !+|.c b b b !+~+{+]+^+/+(+_+",
"8.|.1 :+6 J 4 d | [ d d F <+<+[+}+)+<+,.",
"|+h 1+2+_+3+4+5+6+6+r.h 7+1++.6+8+9+0+a+"};
