/* XPM */
static char * up_xpm[] = {
"24 24 79 1",
" 	c None",
".	c #6E9DB3",
"+	c #5A8093",
"@	c #6B99AE",
"#	c #6B99AF",
"$	c #527485",
"%	c #374F5A",
"&	c #6996AB",
"*	c #648FA3",
"=	c #4E6F7E",
"-	c #6995AA",
";	c #628B9F",
">	c #4F7181",
",	c #3E5965",
"'	c #324852",
")	c #6590A5",
"!	c #5D8497",
"~	c #43606D",
"{	c #628CA0",
"]	c #507282",
"^	c #476574",
"/	c #5E8698",
"(	c #567B8C",
"_	c #4A6978",
":	c #5A8193",
"<	c #547888",
"[	c #4C6D7C",
"}	c #517383",
"|	c #6691A5",
"1	c #6793A7",
"2	c #537788",
"3	c #4E7080",
"4	c #4B6C7B",
"5	c #456371",
"6	c #3B5460",
"7	c #2D4049",
"8	c #60899D",
"9	c #5F889B",
"0	c #5B8294",
"a	c #557A8B",
"b	c #4E6F7F",
"c	c #4A6A79",
"d	c #43606E",
"e	c #38505C",
"f	c #273840",
"g	c #6895AA",
"h	c #648EA2",
"i	c #5C8395",
"j	c #4D6E7E",
"k	c #4D6E7D",
"l	c #496877",
"m	c #425E6C",
"n	c #364D58",
"o	c #60899C",
"p	c #547889",
"q	c #4B6B7A",
"r	c #476674",
"s	c #466573",
"t	c #486775",
"u	c #6894A9",
"v	c #5D8598",
"w	c #4C6C7C",
"x	c #405B68",
"y	c #3B5561",
"z	c #3D5763",
"A	c #3F5A67",
"B	c #425E6B",
"C	c #39515D",
"D	c #587E90",
"E	c #314650",
"F	c #2B3E47",
"G	c #334852",
"H	c #38505B",
"I	c #2C3F48",
"J	c #1F2D33",
"K	c #141D21",
"L	c #131B1F",
"M	c #131C20",
"N	c #11181C",
"                        ",
"                        ",
"                        ",
"                        ",
"           .+           ",
"          @#$%          ",
"          &*=%          ",
"         --;>,'         ",
"         &)!>~%         ",
"        --{+]^,'        ",
"        &)/(>_~%        ",
"       --{:<][^,'       ",
"       &)/(}>=_~%       ",
"      |1;+2]>34567      ",
"      890a}>>bcdef      ",
"      ghi<3jjjklmn      ",
"     -gopqrss^t_^,'     ",
"     uvwxyyyyyyzABC     ",
"    {DAEFFFFFFFF7GHI    ",
"    eJKLLLLLLLLLLMKN    ",
"                        ",
"                        ",
"                        ",
"                        "};
