/* XPM */
static char * contents_xpm[] = {
"17 24 51 1",
" 	c None",
".	c #000000000000",
"X	c #636361616363",
"o	c #424245454242",
"O	c #4A4A49494A4A",
"+	c #181818181818",
"@	c #000004040000",
"#	c #8C8C8E8E8C8C",
"$	c #9C9C9E9E9C9C",
"%	c #6B6B6D6D6B6B",
"&	c #A5A5A2A2A5A5",
"*	c #B5B5B2B2B5B5",
"=	c #BDBDBEBEBDBD",
"-	c #C6C6C3C3C6C6",
";	c #080808080808",
":	c #848486868484",
">	c #DEDEDFDFDEDE",
",	c #C6C6C7C7C6C6",
"<	c #8C8C8A8A8C8C",
"1	c #DEDEDBDBDEDE",
"2	c #FFFFFBFBFFFF",
"3	c #E7E7E3E3E7E7",
"4	c #6B6B69696B6B",
"5	c #CECECBCBCECE",
"6	c #ADADAEAEADAD",
"7	c #E7E7E7E7E7E7",
"8	c #4A4A4D4D4A4A",
"9	c #7B7B7D7D7B7B",
"0	c #5A5A5D5D5A5A",
"q	c #ADADAAAAADAD",
"w	c #B5B5B6B6B5B5",
"e	c #BDBDBABABDBD",
"r	c #CECECFCFCECE",
"t	c #424241414242",
"y	c #D6D6D3D3D6D6",
"u	c #D6D6D7D7D6D6",
"i	c #525251515252",
"p	c #848482828484",
"a	c #737371717373",
"s	c #949492929494",
"d	c #9C9C9A9A9C9C",
"f	c #525255555252",
"g	c #636365656363",
"h	c #EFEFEBEBEFEF",
"j	c #5A5A59595A5A",
"k	c #EFEFEFEFEFEF",
"l	c #F7F7F3F3F7F7",
"z	c #F7F7F7F7F7F7",
"x	c #A5A5A6A6A5A5",
"c	c #212120202121",
"v	c #212124242121",
"   .XooooooOOO+  ",
"  @#$%$&&*=---O  ",
" ;:>-...#.-.,,O..",
".<1234*.=--,,5O..",
"X6,73%.:6-,,558..",
"o99..0...0..0=8..",
"o**q**wwe=--,r8..",
"t.4.e,,55rryyui..",
"O---=eee=q=yuui..",
"O,,6..p.:.ae=1i..",
"O,5,*66****=u7i..",
"O5rr....#.sdu3f..",
"8rrreweeeee<13f..",
"8yyy..g..:.d>7f..",
"8u=,rr5r=eye7hf..",
"8p..,r5=--7hhhj..",
"i1116...:..hkkj..",
"i1>>qpwphhkkklj..",
"i>31...7..k.lz0..",
"f3>ye-7h17kklz0..",
"f7u..hkkk88x8l0..",
"cfjjjjjj0jjjj0v..",
"  ...............",
"  ..............."};
