/* XPM */
static char * reload_xpm[] = {
"23 24 189 2",
"  	c None",
" .	c #5C4A42",
" +	c #D4B1A2",
" @	c #3E281E",
" #	c #000000",
" $	c #D5B2A3",
" %	c #9D654C",
" &	c #4B2D1F",
" *	c #DCBAAC",
" =	c #A4664A",
" -	c #BD9482",
" ;	c #BF8E7A",
" >	c #C28A74",
" ,	c #CB9C89",
" '	c #CEA08F",
" )	c #D1A491",
" !	c #D4A794",
" ~	c #D5AB9A",
" {	c #D5AD9D",
" ]	c #D6B1A2",
" ^	c #D7B5A7",
" /	c #DABCAF",
" (	c #9F877C",
" _	c #25201D",
" :	c #D6AD9C",
" <	c #A06045",
" [	c #9F5B3E",
" }	c #CFA592",
" |	c #BD8E78",
" 1	c #955034",
" 2	c #934F33",
" 3	c #924E32",
" 4	c #934F32",
" 5	c #945034",
" 6	c #975235",
" 7	c #995437",
" 8	c #9B573B",
" 9	c #9C5A3E",
" 0	c #A66347",
" a	c #BA8067",
" b	c #5A433A",
" c	c #C79078",
" d	c #9B593C",
" e	c #9A5638",
" f	c #AD6444",
" g	c #B87354",
" h	c #B66D4D",
" i	c #B16341",
" j	c #B06240",
" k	c #B16240",
" l	c #B26240",
" m	c #B46341",
" n	c #B46543",
" o	c #B76846",
" p	c #B66946",
" q	c #B96C4B",
" r	c #B76B4A",
" s	c #A75D3D",
" t	c #904E32",
" u	c #6B3D29",
" v	c #C68F74",
" w	c #A35E40",
" x	c #9A583B",
" y	c #AC6444",
" z	c #B56C4A",
" A	c #B9704D",
" B	c #BA714E",
" C	c #B96F4D",
" D	c #B96F4C",
" E	c #BB714E",
" F	c #BE7350",
" G	c #C27854",
" H	c #C77D59",
" I	c #CD835F",
" J	c #D28864",
" K	c #D38966",
" L	c #C87D5B",
" M	c #B16343",
" N	c #683824",
" O	c #0E0704",
" P	c #B06C4C",
" Q	c #C2876B",
" R	c #C28163",
" S	c #BE7957",
" T	c #CD9C85",
" U	c #CF9C84",
" V	c #CC9479",
" W	c #C98C6F",
" X	c #C78768",
" Y	c #C58261",
" Z	c #C47E5D",
" `	c #C6805D",
". 	c #CA8460",
"..	c #D18964",
".+	c #D48A66",
".@	c #D28965",
".#	c #C9805E",
".$	c #BF6E4C",
".%	c #7A412A",
".&	c #130906",
".*	c #B98369",
".=	c #D5A58E",
".-	c #CE987F",
".;	c #E6D3CB",
".>	c #DBBFB2",
".,	c #CC9F8A",
".'	c #C9967E",
".)	c #C79177",
".!	c #C88C71",
".~	c #C48468",
".{	c #C07C5E",
".]	c #C27E5F",
".^	c #C37E60",
"./	c #C68061",
".(	c #C88566",
"._	c #C98768",
".:	c #C27758",
".<	c #84462E",
".[	c #20110B",
".}	c #BB8E79",
".|	c #E2C4B5",
".1	c #D3B1A2",
".2	c #6C4332",
".3	c #553020",
".4	c #623623",
".5	c #653823",
".6	c #81452C",
".7	c #733D27",
".8	c #6D3A25",
".9	c #7B412A",
".0	c #7D422A",
".a	c #84462D",
".b	c #8B4C32",
".c	c #9A5A3F",
".d	c #B2694C",
".e	c #965035",
".f	c #412216",
".g	c #B59284",
".h	c #D4B6A8",
".i	c #311F16",
".j	c #945D47",
".k	c #512A1B",
".l	c #4A2719",
".m	c #673623",
".n	c #633522",
".o	c #693925",
".p	c #633623",
".q	c #6B3925",
".r	c #6E3A26",
".s	c #4B271A",
".t	c #935B42",
".u	c #331C12",
".v	c #D6B9AD",
".w	c #894A30",
".x	c #7C422A",
".y	c #AB6242",
".z	c #AF6645",
".A	c #B76E4E",
".B	c #C27956",
".C	c #B57659",
".D	c #976753",
".E	c #5A3121",
".F	c #E0CBC1",
".G	c #9F5C40",
".H	c #99583B",
".I	c #C17B59",
".J	c #C47F5D",
".K	c #CB8664",
".L	c #D49A7D",
".M	c #E2C4B6",
".N	c #E0C1B3",
".O	c #774531",
".P	c #DFC8BD",
".Q	c #B67355",
".R	c #BD7F63",
".S	c #CB9176",
".T	c #CD957A",
".U	c #D7AB97",
".V	c #E3C8BB",
".W	c #DABBAD",
".X	c #9D6D58",
".Y	c #C09581",
".Z	c #884F36",
".`	c #885138",
"+ 	c #89533A",
"+.	c #834F38",
"++	c #7B4F3B",
"+@	c #7E5441",
"+#	c #3E261A",
"                                              ",
"                                              ",
"                                              ",
"             .                                ",
"           + @   #                            ",
"         $ % & # #                            ",
"       * = - ; > , ' ) ! ~ { ] ^ / ( _        ",
"     : < [ } | 1 2 2 3 4 5 6 7 8 9 0 a b      ",
"   c d e f g h i j k l m n o p q r s t u #    ",
" v w x y z A B C C D E F G H I J K L M N O #  ",
"   P Q R S T U V W X Y Z `. ...+.@.#.$.%.& #  ",
"    .*.=.-.;.>.,.'.).!.~.{.].^./.(._.:.<.[ # #",
"      .}.|.1.2.3.4.5.6.7.8.9.0.a.b.c.d.e.f # #",
"        .g.h.i # # #.j.k.l.m.m.n.o.p.q.r.s # #",
"          .t.u # # #.v.w.x.y.z.A.B.C.D.E # # #",
"             O # #  .F.G.H.I.J.K.L.M.N.O # # #",
"               # #  .P.Q.R.S.T.U.V.W.X # # #  ",
"                 #  .Y.Z.`+ +.+++@+# # # # #  ",
"                         # # # # # # # # #    ",
"                         # # # # # # # #      ",
"                                              ",
"                                              ",
"                                              ",
"                                              "};
